<?xml version="1.0" encoding="utf-8"?>
<!-- Generator: Adobe Illustrator 21.1.0, SVG Export Plug-In . SVG Version: 6.00 Build 0)  -->
<svg version="1.1" id="Layer_1" xmlns="http://www.w3.org/2000/svg" xmlns:xlink="http://www.w3.org/1999/xlink" x="0px" y="0px"
	 viewBox="0 0 202.7 46.6" style="enable-background:new 0 0 202.7 46.6;" xml:space="preserve">
<style type="text/css">
	.st0{fill:#FF0000;}
</style>
<path class="st0" d="M18.6,33.6l13.5-7.8c1.2-0.7,1.2-2.5,0-3.2l-13.5-7.8c-1.2-0.7-2.8,0.2-2.8,1.6V32
	C15.8,33.4,17.4,34.3,18.6,33.6z"/>
<g>
	<path class="st0" d="M53.8,37.2l6-28.1h3.8l6,28.1h-3.7l-1.3-7.1h-5.7l-1.4,7.1H53.8z M59.3,27.3H64l-2.4-12.7L59.3,27.3z"/>
	<path class="st0" d="M75,37.5c-0.8,0-1.4-0.2-1.8-0.6s-0.7-0.9-0.9-1.6c-0.2-0.6-0.3-1.3-0.3-1.9V17.1h3.7v15.1
		c0,0.7,0.1,1.3,0.3,1.7c0.2,0.4,0.6,0.6,1.3,0.6c0.4,0,0.9-0.1,1.3-0.4s0.9-0.5,1.3-0.9V17.1h3.7v20.1h-3.7v-2
		c-0.6,0.6-1.4,1.2-2.2,1.6C76.8,37.2,75.9,37.5,75,37.5z"/>
	<path class="st0" d="M92.7,37.5c-1,0-1.9-0.2-2.5-0.6c-0.6-0.4-1.1-1-1.4-1.7c-0.3-0.7-0.4-1.6-0.4-2.5V19.6h-2.1v-2.5h2.1v-5.9
		h3.7v5.9h3.2v2.5h-3.2v12.9c0,0.8,0.1,1.3,0.4,1.7c0.3,0.3,0.7,0.5,1.5,0.5c0.2,0,0.4,0,0.6,0c0.2,0,0.5,0,0.7-0.1v2.7
		c-0.5,0.1-0.9,0.1-1.3,0.2C93.6,37.4,93.2,37.5,92.7,37.5z"/>
	<path class="st0" d="M103.6,37.5c-1.5,0-2.7-0.3-3.5-0.9c-0.9-0.6-1.5-1.5-1.8-2.6c-0.4-1.1-0.5-2.4-0.5-3.9v-5.8
		c0-1.5,0.2-2.8,0.5-3.9c0.4-1.1,1-2,1.8-2.6c0.9-0.6,2-0.9,3.5-0.9c1.5,0,2.6,0.3,3.5,0.9c0.8,0.6,1.4,1.5,1.8,2.6
		c0.4,1.1,0.5,2.4,0.5,3.9v5.8c0,1.5-0.2,2.8-0.5,3.9c-0.4,1.1-1,2-1.8,2.6C106.2,37.2,105.1,37.5,103.6,37.5z M103.6,34.7
		c0.7,0,1.2-0.2,1.5-0.6c0.3-0.4,0.5-1,0.5-1.7c0.1-0.7,0.1-1.4,0.1-2.1V24c0-0.8,0-1.5-0.1-2.2c-0.1-0.7-0.2-1.2-0.5-1.7
		c-0.3-0.4-0.8-0.6-1.5-0.6c-0.7,0-1.2,0.2-1.5,0.6c-0.3,0.4-0.5,1-0.5,1.7c-0.1,0.7-0.1,1.4-0.1,2.2v6.3c0,0.7,0,1.5,0.1,2.1
		c0.1,0.7,0.2,1.2,0.5,1.7C102.4,34.5,102.9,34.7,103.6,34.7z"/>
	<path class="st0" d="M113.1,37.2V9h7c1.7,0,3,0.3,4,0.9c1,0.6,1.7,1.5,2.2,2.7c0.5,1.2,0.7,2.6,0.7,4.2c0,1.5-0.3,2.8-0.8,3.9
		c-0.5,1.1-1.3,1.9-2.3,2.5c-1,0.6-2.3,0.9-3.8,0.9h-3.1v13.1H113.1z M117.1,21.3h1.8c1.1,0,2-0.1,2.7-0.4c0.6-0.3,1.1-0.7,1.4-1.3
		c0.3-0.6,0.4-1.5,0.4-2.7c0-1.3-0.1-2.4-0.3-3.1c-0.2-0.7-0.6-1.2-1.2-1.5c-0.6-0.3-1.6-0.4-2.9-0.4h-1.8V21.3z"/>
	<path class="st0" d="M129.8,37.2V9h3.7v28.1H129.8z"/>
	<path class="st0" d="M141.1,37.5c-0.8,0-1.5-0.2-2.1-0.7c-0.6-0.5-1.1-1-1.4-1.7c-0.3-0.7-0.5-1.5-0.5-2.2c0-1.3,0.2-2.3,0.6-3.2
		c0.4-0.9,1-1.6,1.7-2.2c0.7-0.6,1.6-1.1,2.5-1.5c1-0.4,2-0.9,3-1.3v-1.4c0-0.8,0-1.5-0.1-2c-0.1-0.5-0.3-0.9-0.6-1.2
		c-0.3-0.3-0.7-0.4-1.3-0.4c-0.5,0-0.9,0.1-1.2,0.3c-0.3,0.2-0.5,0.6-0.7,1s-0.2,0.9-0.2,1.5v1l-3.7-0.1c0-2.2,0.6-3.9,1.5-4.9
		c1-1.1,2.5-1.6,4.5-1.6c2,0,3.4,0.5,4.2,1.6s1.3,2.7,1.3,4.7v9.2c0,0.6,0,1.2,0.1,1.8c0,0.6,0.1,1.1,0.1,1.6c0.1,0.5,0.1,1,0.2,1.4
		h-3.4c-0.1-0.4-0.2-0.8-0.3-1.4c-0.1-0.6-0.2-1.1-0.2-1.5c-0.2,0.8-0.7,1.5-1.3,2.2C143.1,37.1,142.2,37.5,141.1,37.5z M142.5,34.3
		c0.4,0,0.7-0.1,1-0.3c0.3-0.2,0.6-0.4,0.9-0.7s0.4-0.5,0.5-0.6v-5.7c-0.6,0.3-1.1,0.6-1.6,1c-0.5,0.3-1,0.7-1.3,1
		c-0.4,0.4-0.7,0.8-0.9,1.2c-0.2,0.5-0.3,1-0.3,1.5c0,0.8,0.2,1.4,0.5,1.9C141.5,34,141.9,34.3,142.5,34.3z"/>
	<path class="st0" d="M151.9,42.2v-2.8c0.9,0,1.6,0,2.2-0.1c0.5-0.1,0.9-0.2,1.1-0.5c0.2-0.2,0.3-0.5,0.3-0.9c0-0.2-0.1-0.7-0.2-1.4
		s-0.3-1.5-0.5-2.3l-4-17.1h3.8l2.7,15l2.6-15h3.8l-4.8,21.2c-0.2,1-0.6,1.7-1.1,2.3c-0.6,0.6-1.3,1-2.1,1.2
		c-0.9,0.3-1.9,0.4-3.1,0.4H151.9z"/>
	<path class="st0" d="M166.2,37.2V9h3.7v28.1H166.2z"/>
	<path class="st0" d="M174.1,14.1v-3.9h3.7v3.9H174.1z M174.1,37.2V17.1h3.7v20.1H174.1z"/>
	<path class="st0" d="M186.4,37.5c-1.6,0-3-0.5-4-1.5c-1-1-1.6-2.4-1.7-4.1l3.1-0.9c0.2,1.3,0.5,2.2,0.9,2.9c0.4,0.6,1.1,1,1.9,1
		c0.7,0,1.2-0.2,1.5-0.6c0.3-0.4,0.5-0.9,0.5-1.5c0-0.6-0.1-1.1-0.4-1.6c-0.3-0.5-0.7-0.9-1.3-1.4l-3.4-3c-0.7-0.6-1.3-1.3-1.8-2
		s-0.7-1.7-0.7-2.9c0-1.1,0.2-2,0.6-2.7c0.4-0.7,1-1.3,1.8-1.7c0.8-0.4,1.7-0.6,2.7-0.6c1.6,0,2.8,0.5,3.7,1.5
		c0.8,1,1.3,2.3,1.4,3.7l-2.5,0.9c-0.1-0.7-0.2-1.3-0.4-1.8c-0.2-0.5-0.4-0.9-0.8-1.2c-0.3-0.3-0.8-0.4-1.3-0.4
		c-0.6,0-1.1,0.2-1.4,0.6c-0.4,0.4-0.5,0.9-0.5,1.4c0,0.3,0.1,0.7,0.2,1s0.4,0.7,0.8,1l3.5,3.3c0.5,0.4,0.9,0.9,1.4,1.4
		c0.4,0.5,0.8,1.1,1.1,1.7c0.3,0.6,0.4,1.4,0.4,2.3c0,1.1-0.2,2.1-0.7,2.8c-0.5,0.8-1.1,1.3-1.9,1.7
		C188.5,37.3,187.6,37.5,186.4,37.5z"/>
	<path class="st0" d="M200.1,37.5c-1,0-1.9-0.2-2.5-0.6c-0.6-0.4-1.1-1-1.4-1.7c-0.3-0.7-0.4-1.6-0.4-2.5V19.6h-2.1v-2.5h2.1v-5.9
		h3.7v5.9h3.2v2.5h-3.2v12.9c0,0.8,0.1,1.3,0.4,1.7c0.3,0.3,0.7,0.5,1.5,0.5c0.2,0,0.4,0,0.6,0c0.2,0,0.5,0,0.7-0.1v2.7
		c-0.5,0.1-0.9,0.1-1.3,0.2C201,37.4,200.6,37.5,200.1,37.5z"/>
</g>
<g>
	<g>
		<path class="st0" d="M2,30.2c-0.7,0-1.3-0.5-1.5-1.2C0.2,27.3,0,25.7,0,24.1C0,14.2,6.4,5.5,15.8,2.6c0.8-0.2,1.6,0.2,1.9,1
			s-0.2,1.6-1,1.9C8.5,8,3,15.5,3,24.1c0,1.4,0.2,2.8,0.5,4.3c0.2,0.8-0.3,1.6-1.1,1.8C2.2,30.1,2.1,30.2,2,30.2z"/>
	</g>
	<g>
		<path class="st0" d="M43,30.2c-0.1,0-0.2,0-0.3,0c-0.8-0.2-1.3-1-1.1-1.8c0.3-1.4,0.5-2.9,0.5-4.3c0-8.6-5.5-16.1-13.7-18.6
			c-0.8-0.2-1.2-1.1-1-1.9s1.1-1.2,1.9-1c9.5,2.9,15.8,11.6,15.8,21.5c0,1.6-0.2,3.3-0.6,4.9C44.3,29.7,43.7,30.2,43,30.2z"/>
	</g>
	<g>
		<path class="st0" d="M22.5,46.6c-5.7,0-11.1-2.1-15.3-6c-0.6-0.6-0.6-1.5-0.1-2.1c0.6-0.6,1.5-0.6,2.1-0.1
			c3.6,3.4,8.3,5.2,13.3,5.2s9.6-1.9,13.3-5.2c0.6-0.6,1.6-0.5,2.1,0.1c0.6,0.6,0.5,1.6-0.1,2.1C33.6,44.5,28.2,46.6,22.5,46.6z"/>
	</g>
</g>
<path class="st0" d="M10,35.9l-6.1-1.4c-0.6-0.1-1,0.4-0.9,0.9l1.8,6C5,42,5.7,42.1,6.1,41.7l4.3-4.6C10.7,36.7,10.5,36,10,35.9z"/>
<path class="st0" d="M18.6,7.2l4.3-4.6c0.4-0.4,0.2-1.1-0.4-1.2L16.3,0c-0.6-0.1-1,0.4-0.9,0.9l1.9,6C17.5,7.5,18.2,7.6,18.6,7.2z"
	/>
<path class="st0" d="M39.1,29l1.9,6c0.2,0.5,0.9,0.7,1.3,0.3l4.2-4.6c0.4-0.4,0.2-1.1-0.4-1.2L40,28C39.4,27.9,38.9,28.4,39.1,29z"
	/>
</svg>
