<?xml version="1.0" encoding="utf-8"?>
<!-- Generator: Adobe Illustrator 21.1.0, SVG Export Plug-In . SVG Version: 6.00 Build 0)  -->
<svg version="1.1" id="Capa_1" xmlns="http://www.w3.org/2000/svg" xmlns:xlink="http://www.w3.org/1999/xlink" x="0px" y="0px"
	 viewBox="0 0 512 512" style="enable-background:new 0 0 512 512;" xml:space="preserve">
<style type="text/css">
	.st0{fill:#FFFFFF;}
</style>
<g>
	<g>
		<path class="st0" d="M497,128.5H15c-8.3,0-15,6.7-15,15V497c0,8.3,6.7,15,15,15h482c8.3,0,15-6.7,15-15V143.5
			C512,135.2,505.3,128.5,497,128.5z M340.6,332.7l-120.5,80.3c-2.5,1.7-5.4,2.5-8.3,2.5c-2.4,0-4.9-0.6-7.1-1.8
			c-4.9-2.6-7.9-7.7-7.9-13.2V239.9c0-5.5,3-10.6,7.9-13.2c4.9-2.6,10.8-2.3,15.4,0.7l120.5,80.3c4.2,2.8,6.7,7.5,6.7,12.5
			S344.8,330,340.6,332.7z"/>
	</g>
</g>
<g>
	<g>
		<path class="st0" d="M448.8,64.3H63.2c-8.3,0-15,6.7-15,15s6.7,15,15,15h385.6c8.3,0,15-6.7,15-15S457.1,64.3,448.8,64.3z"/>
	</g>
</g>
<g>
	<g>
		<path class="st0" d="M400.6,0H111.4c-8.3,0-15,6.7-15,15s6.7,15,15,15h289.2c8.3,0,15-6.7,15-15S408.9,0,400.6,0z"/>
	</g>
</g>
</svg>
