<?xml version="1.0" encoding="utf-8"?>
<!-- Generator: Adobe Illustrator 21.1.0, SVG Export Plug-In . SVG Version: 6.00 Build 0)  -->
<svg version="1.1" id="Capa_1" xmlns="http://www.w3.org/2000/svg" xmlns:xlink="http://www.w3.org/1999/xlink" x="0px" y="0px"
	 viewBox="0 0 442.5 442.5" style="enable-background:new 0 0 442.5 442.5;" xml:space="preserve">
<style type="text/css">
	.st0{fill:#167AC6;}
</style>
<g>
	<path class="st0" d="M434.5,98.5l-38.8-38.8c-5.3-5.3-11.8-8-19.4-8c-7.6,0-14.1,2.7-19.4,8L169.6,247.2L85.7,163
		c-5.3-5.3-11.8-8-19.4-8c-7.6,0-14.1,2.7-19.4,8L8,201.9c-5.3,5.3-8,11.8-8,19.4c0,7.6,2.7,14.1,8,19.4L111.3,344l38.8,38.8
		c5.3,5.3,11.8,8,19.4,8c7.6,0,14.1-2.7,19.4-8l38.8-38.8l206.7-206.7c5.3-5.3,8-11.8,8-19.4C442.5,110.3,439.9,103.8,434.5,98.5z"
		/>
</g>
</svg>
