<?xml version="1.0" encoding="utf-8"?>
<!-- Generator: Adobe Illustrator 21.1.0, SVG Export Plug-In . SVG Version: 6.00 Build 0)  -->
<svg version="1.1" id="Capa_1" xmlns="http://www.w3.org/2000/svg" xmlns:xlink="http://www.w3.org/1999/xlink" x="0px" y="0px"
	 viewBox="0 0 594.1 594.1" style="enable-background:new 0 0 594.1 594.1;" xml:space="preserve">
<style type="text/css">
	.st0{fill:#FF9700;}
	.st1{fill:#FFBC00;}
</style>
<g>
	<path class="st0" d="M594.1,449.2L594.1,449.2c0-28.1-3.9-55.9-11.6-82.6l-2.1-7.4h-21.6c-2-53.1-19.8-103.4-51.6-146.2
		c-31.6-42.4-76.2-74.8-126.1-91.7l2.4-32.9l-8.1-2.2c-25.4-7-51.7-10.5-78.2-10.5c-26.5,0-52.9,3.5-78.2,10.5l-8.1,2.2l2.4,32.9
		c-49.9,16.9-94.5,49.3-126.1,91.7c-31.9,42.7-49.6,93.1-51.6,146.2H13.8l-2.1,7.4C3.9,393.3,0,421.1,0,449.2v10.2h137.4h24.4h270.5
		h24.4h137.4h0V449.2z M379.5,142.5c43.9,16,83.1,45.1,111.2,82.8c29.2,39.2,45.5,85.3,47.5,134H363.9L379.5,142.5z M297.1,96.1
		c21.9,0,43.6,2.6,64.7,7.7l-18.3,255.5h-92.8l-18.3-255.5C253.4,98.7,275.2,96.1,297.1,96.1z M103.4,225.3
		c28.1-37.7,67.3-66.8,111.3-82.8l15.6,216.8H55.8C57.8,310.6,74.2,264.5,103.4,225.3z M20.6,439c0.7-20.1,3.6-40,8.6-59.3h535.6
		c5,19.3,7.9,39.2,8.6,59.3H20.6z"/>
	<path class="st1" d="M214.6,142.5c-43.9,16-83.2,45.1-111.3,82.8c-29.2,39.2-45.5,85.3-47.5,134h174.4L214.6,142.5z"/>
	<path class="st1" d="M343.4,359.3l18.3-255.5c-21.1-5.1-42.8-7.7-64.7-7.7c-21.9,0-43.6,2.6-64.7,7.7l18.3,255.5H343.4z"/>
	<path class="st1" d="M29.2,379.7c-5,19.3-7.9,39.2-8.6,59.3h552.8c-0.7-20.1-3.6-40-8.6-59.3H29.2z"/>
	<path class="st1" d="M490.7,225.3c-28.1-37.7-67.3-66.8-111.2-82.8l-15.6,216.8h174.4C536.3,310.6,519.9,264.5,490.7,225.3z"/>
</g>
</svg>
