<?xml version="1.0" encoding="utf-8"?>
<!-- Generator: Adobe Illustrator 21.1.0, SVG Export Plug-In . SVG Version: 6.00 Build 0)  -->
<svg version="1.1" id="Calque_1" xmlns="http://www.w3.org/2000/svg" xmlns:xlink="http://www.w3.org/1999/xlink" x="0px" y="0px"
	 viewBox="0 0 1123.5 756.9" style="enable-background:new 0 0 1123.5 756.9;" xml:space="preserve">
<style type="text/css">
	.st0{fill:#FF0000;}
	.st1{fill:#FFFFFF;}
	.st2{fill:#333333;}
	.st3{opacity:0.1;stroke:#FFFFFF;stroke-miterlimit:10;enable-background:new    ;}
	.st4{fill:#FFFFFF;stroke:#333333;stroke-width:2;stroke-miterlimit:10;}
	.st5{fill:#FF9700;}
	.st6{fill:#FFBC00;}
</style>
<rect class="st0" width="1123.5" height="756.9"/>
<path class="st1" d="M486.2,136.2l-11.5,6.4c-55.7,30.9-89.3,90.3-87,153.9l0.7,19.6c2.4,66.3-1.5,132.7-11.5,198.3l-14.6,96.2
	c-4.2,27.4,27.9,45.3,49,27.3l0.5-0.5c10.2-8.7,24.9-9.5,36-2.1l24.2,16.2c10.2,6.8,23.6,6.7,33.7-0.3l24.4-17
	c10.6-7.4,24.8-7.1,35.1,0.7l18.2,13.7c10.4,7.9,24.7,8.1,35.4,0.5l14.7-10.4c12.7-9,30.2-6.8,40.2,5.1l0,0
	c17.1,20.3,50.3,9.9,52.7-16.6l11.9-129c5.1-54.9,5.8-110.1,2.3-165.1l-3.8-59.9c-3.7-57.6-36.5-109.3-87-137.2l0,0
	C599,107.9,537.1,108,486.2,136.2z"/>
<g>
	<path class="st2" d="M533.9,482.8l0.5-0.2c4.9,4.8,12.1,7,19.2,5c7-2,12.1-7.5,13.7-14.1l-15.2,4.3l-8.1-7.9l2.8-10.9l15.2-4.3
		c-4.9-4.8-12.1-6.9-19.1-4.9c-7.4,2.1-12.6,8.1-14,15.1l-0.1,0l-82.5,23.4c-2.5,0.7-4.4,2.3-5.6,4.4c-1.2,2.1-1.5,4.6-0.8,7.1
		c1.4,4.9,6.5,7.8,11.4,6.4L533.9,482.8z M444.1,495.5c1-1.7,3.1-2.3,4.8-1.3c1.7,1,2.3,3.1,1.4,4.8c-1,1.7-3.1,2.3-4.8,1.4
		C443.8,499.4,443.2,497.3,444.1,495.5z"/>
</g>
<ellipse class="st2" cx="648.2" cy="294.3" rx="18.6" ry="31.4"/>
<ellipse class="st2" cx="515" cy="294.3" rx="18.6" ry="31.4"/>
<path class="st3" d="M676.2,649.8"/>
<path class="st0" d="M543.2,427.7"/>
<path class="st4" d="M464.5,413.2l-0.7,33.2c-0.3,14,0.9,28,3.7,41.7v0c1.2,5.9,4.7,11.1,9.7,14.4l0.6,0.4c9.1,6,21.2,4.7,28.7-3.2
	v0c4.3-4.5,6.6-10.5,6.3-16.7v0c-0.7-15.6-0.3-31.3,1.2-46.8l3.7-37.8"/>
<path class="st4" d="M693.1,414.5l0.7,33.2c0.3,14-0.9,28-3.7,41.7v0c-1.2,5.9-4.7,11.1-9.7,14.4l-0.6,0.4c-9.1,6-21.2,4.7-28.7-3.2
	v0c-4.3-4.5-6.6-10.5-6.3-16.7v0c0.7-15.6,0.3-31.3-1.2-46.8l-3.7-37.8"/>
<g>
	<path class="st5" d="M569.1,118.7L569.1,118.7c-2.5-5.8-5.8-11.2-9.7-16l-1.1-1.3l-4.5,1.9c-5.1-10.8-13.2-19.6-23.6-25.7
		c-10.3-6-22.4-8.7-34.2-7.8l-2.4-7l-1.9,0.3c-5.9,0.8-11.6,2.4-17.1,4.7c-5.5,2.3-10.6,5.4-15.2,9.1L458,78l3.4,6.6
		c-8.8,7.9-15.2,18.6-18,30.1c-2.8,11.7-2,23.6,2.3,34.8l-4.5,1.9l0.2,1.7c0.8,6.2,2.4,12.3,4.9,18.1l0.9,2.1l28.4-12.2l5-2.2
		l55.9-23.9l5-2.2l28.4-12.2l0,0L569.1,118.7z M497.6,74.2c10.5-0.6,21.2,2,30.3,7.3c9.5,5.5,17,13.6,21.7,23.5l-36.1,15.4
		L497.6,74.2z M476.5,71.9c4.5-1.9,9.3-3.3,14.1-4.1l18.8,54.4l-19.2,8.2l-26.4-51.2C467.7,76.3,472,73.9,476.5,71.9z M447.9,115.8
		c2.5-10.3,8-19.8,15.7-27l22.4,43.4l-36.1,15.4C446,137.4,445.3,126.5,447.9,115.8z M449.7,167.3c-1.6-4.2-2.8-8.6-3.5-13
		l110.8-47.4c2.7,3.6,5.1,7.4,7,11.5L449.7,167.3z"/>
	<path class="st6" d="M463.5,88.8c-7.7,7.2-13.2,16.7-15.7,27c-2.6,10.7-1.9,21.7,2,31.9l36.1-15.4L463.5,88.8z"/>
	<path class="st6" d="M509.4,122.2l-18.8-54.4c-4.8,0.8-9.5,2.2-14.1,4.1c-4.5,1.9-8.8,4.4-12.7,7.3l26.4,51.2L509.4,122.2z"/>
	<path class="st6" d="M446.2,154.3c0.7,4.4,1.8,8.8,3.5,13L564,118.4c-1.9-4.1-4.3-7.9-7-11.5L446.2,154.3z"/>
	<path class="st6" d="M528,81.5c-9.1-5.3-19.8-7.9-30.3-7.3l16,46.2l36.1-15.4C544.9,95.1,537.5,87,528,81.5z"/>
</g>
</svg>
