<?xml version="1.0" encoding="utf-8"?>
<!-- Generator: Adobe Illustrator 21.1.0, SVG Export Plug-In . SVG Version: 6.00 Build 0)  -->
<svg version="1.1" id="Capa_1" xmlns="http://www.w3.org/2000/svg" xmlns:xlink="http://www.w3.org/1999/xlink" x="0px" y="0px"
	 viewBox="0 0 59.3 59.3" style="enable-background:new 0 0 59.3 59.3;" xml:space="preserve">
<style type="text/css">
	.st0{fill:#FFFFFF;}
</style>
<g>
	<path class="st0" d="M41.5,0c-9.2,0-16.7,7.5-16.7,16.7c0,2.8,0.7,5.5,2,7.8L2.5,49c-1.9,2-1.9,5.1,0,7.1c1,1,2.2,1.4,3.5,1.4
		c1.3,0,2.6-0.5,3.6-1.5l2.8-2.9l6.1,6.1l3.7-3.7l-3-3l2.1-2.1l2.9,3l2.7-2.7l-6.2-6.2l12.9-13.1c2.3,1.2,4.9,1.9,7.7,1.9
		c9.2,0,16.7-7.5,16.7-16.7S50.7,0,41.5,0z M41.5,27.5c-5.9,0-10.7-4.8-10.7-10.7S35.6,6,41.5,6c5.9,0,10.7,4.8,10.7,10.7
		S47.4,27.5,41.5,27.5z"/>
</g>
</svg>
