<?xml version="1.0" encoding="utf-8"?>
<!-- Generator: Adobe Illustrator 21.1.0, SVG Export Plug-In . SVG Version: 6.00 Build 0)  -->
<svg version="1.1" id="Calque_1" xmlns="http://www.w3.org/2000/svg" xmlns:xlink="http://www.w3.org/1999/xlink" x="0px" y="0px"
	 viewBox="0 0 100 100" style="enable-background:new 0 0 100 100;" xml:space="preserve">
<style type="text/css">
	.st0{fill:#167AC6;}
</style>
<path class="st0" d="M50,100C22.4,100,0,77.6,0,50C0,22.4,22.4,0,50,0c3.6,0,6.5,2.9,6.5,6.5S53.6,13,50,13c-20.4,0-37,16.6-37,37
	s16.6,37,37,37s37-16.6,37-37c0-4.3-0.7-8.5-2.1-12.4c-1.2-3.4,0.6-7.1,3.9-8.3c3.4-1.2,7.1,0.6,8.3,3.9C99,38.6,100,44.2,100,50
	C100,77.6,77.6,100,50,100z"/>
</svg>
