<?xml version="1.0" encoding="utf-8"?>
<!-- Generator: Adobe Illustrator 21.1.0, SVG Export Plug-In . SVG Version: 6.00 Build 0)  -->
<svg version="1.1" id="Calque_1" xmlns="http://www.w3.org/2000/svg" xmlns:xlink="http://www.w3.org/1999/xlink" x="0px" y="0px"
	 viewBox="0 0 475.2 631.6" style="enable-background:new 0 0 475.2 631.6;" xml:space="preserve">
<style type="text/css">
	.st0{fill:#FFFFFF;}
	.st1{fill:#333333;}
	.st2{opacity:0.1;stroke:#FFFFFF;stroke-miterlimit:10;enable-background:new    ;}
	.st3{fill:#FF0000;}
	.st4{fill:none;stroke:#333333;stroke-width:2;stroke-miterlimit:10;}
	.st5{fill:#8AE1FF;}
</style>
<path class="st0" d="M124.3,111.3l-11.5,6.4c-55.7,30.9-89.3,90.3-87,153.9l0.7,19.6C28.9,357.5,25,423.9,15,489.5L0.4,585.7
	c-4.2,27.4,27.9,45.3,49,27.3l0.5-0.5c10.2-8.7,24.9-9.5,36-2.1l24.2,16.2c10.2,6.8,23.6,6.7,33.7-0.3l24.4-17
	c10.6-7.4,24.8-7.1,35.1,0.7l18.2,13.7c10.4,7.9,24.7,8.1,35.4,0.5l14.7-10.4c12.7-9,30.2-6.8,40.2,5.1l0,0
	c17.1,20.3,50.3,9.9,52.7-16.6l11.9-129c5.1-54.9,5.8-110.1,2.3-165.1l-3.8-59.9c-3.7-57.6-36.5-109.3-87-137.2l0,0
	C237.1,83,175.2,83.1,124.3,111.3z"/>
<ellipse class="st1" cx="286.3" cy="269.4" rx="18.6" ry="31.4"/>
<ellipse class="st1" cx="153.1" cy="269.4" rx="18.6" ry="31.4"/>
<path class="st2" d="M314.3,624.9"/>
<path class="st3" d="M181.3,402.8"/>
<path class="st4" d="M102.6,388.3l-0.7,33.2c-0.3,14,0.9,28,3.7,41.7l0,0c1.2,5.9,4.7,11.1,9.7,14.4l0.6,0.4
	c9.1,6,21.2,4.7,28.7-3.2l0,0c4.3-4.5,6.6-10.5,6.3-16.7v0c-0.7-15.6-0.3-31.3,1.2-46.8l3.7-37.8"/>
<path class="st4" d="M331.2,389.6l0.7,33.2c0.3,14-0.9,28-3.7,41.7v0c-1.2,5.9-4.7,11.1-9.7,14.4l-0.6,0.4c-9.1,6-21.2,4.7-28.7-3.2
	l0,0c-4.3-4.5-6.6-10.5-6.3-16.7v0c0.7-15.6,0.3-31.3-1.2-46.8l-3.7-37.8"/>
<path class="st5" d="M99.9,186.1L99.9,186.1c-1,7.3-3.4,14.3-7,20.8l-3.8,6.9c-2.7,4.8-2,10.8,1.8,14.9l0,0
	c5.1,5.5,13.9,5.4,18.9-0.3l0.3-0.4c3.5-4,4.2-9.8,1.6-14.5l-4.2-7.7c-3.1-5.8-5.3-12.2-6.4-18.7l-0.2-1
	C100.9,185.4,100,185.4,99.9,186.1z"/>
<g>
	<path class="st0" d="M390.5,108l0.6-5.7c0.6-5.5,3.5-10.4,8-13.7c3.8-2.8,7.4-5.8,10.7-9.1c5.4-5.2,9.8-10.9,13.3-17
		c3.5-6.1,5.6-12.7,6.3-19.5c0.5-4.9,0-8.5-1.6-10.9c-1.6-2.4-4.1-3.7-7.5-4.1c-3.2-0.3-5.8,0.3-7.8,2c-2,1.7-3.2,4.2-3.5,7.5
		c-0.2,2.1-0.2,4,0.1,5.7v0c0.5,3-1.6,5.8-4.6,6.2l-15.4,1.9c-5.2,0.6-9.9-3.1-10.4-8.3l0-0.1c-0.3-3-0.2-6.2,0.1-9.5
		c1.2-11.7,5.7-20.4,13.5-26.2c7.8-5.8,18.3-8,31.6-6.6c13.4,1.4,23.3,6,29.8,13.8c6.5,7.8,9,18.2,7.7,31.2c-0.8,8-3,15.4-6.4,22.3
		c-3.4,6.9-8,13.2-13.8,19.1c-4.3,4.3-9.2,8.4-14.6,12.1c-3.7,2.6-6.2,6.7-6.7,11.2v0c-0.7,6.7-6.7,11.6-13.4,10.8l-6.3-0.7
		C394.2,119.5,389.8,114.1,390.5,108z M385.2,148.7l0.7-6.6c0.7-6.4,6.4-11,12.8-10.3l10.1,1.1c5.5,0.6,9.4,5.5,8.9,11l-1,9.6
		c-0.7,6.2-6.3,10.8-12.5,10.1l-7.7-0.8C389.5,161.9,384.4,155.6,385.2,148.7z"/>
</g>
<g>
	<path class="st0" d="M439.7,158.7l1-1.8c1-1.8,2.7-3,4.7-3.5c1.7-0.4,3.3-0.9,4.9-1.5c2.6-1,4.9-2.2,6.9-3.8c2.1-1.6,3.7-3.4,5-5.7
		c0.9-1.6,1.2-2.9,1.1-3.9c-0.2-1-0.8-1.9-1.9-2.5c-1-0.6-2-0.7-2.9-0.5c-0.9,0.3-1.7,0.9-2.3,2c-0.4,0.7-0.7,1.3-0.8,1.9v0
		c-0.3,1.1-1.4,1.7-2.4,1.4l-5.5-1.6c-1.8-0.5-2.9-2.5-2.3-4.3l0,0c0.4-1.1,0.8-2.1,1.4-3.2c2.1-3.7,4.9-6,8.4-6.9
		c3.5-0.8,7.3,0,11.6,2.4c4.3,2.4,7,5.4,8,9c1,3.6,0.4,7.4-2,11.6c-1.4,2.6-3.2,4.7-5.4,6.6c-2.2,1.8-4.6,3.3-7.4,4.4
		c-2.1,0.8-4.3,1.5-6.7,2c-1.6,0.3-3.1,1.3-3.9,2.8l0,0c-1.2,2.2-3.9,2.9-6.1,1.7l-2-1.1C439.2,163.1,438.6,160.6,439.7,158.7z
		 M431.9,171.6l1.2-2.1c1.2-2.1,3.8-2.8,5.8-1.6l3.3,1.8c1.8,1,2.4,3.2,1.4,5l-1.7,3.1c-1.1,2-3.7,2.7-5.7,1.6l-2.5-1.4
		C431.5,176.7,430.7,173.9,431.9,171.6z"/>
</g>
<g>
	<path class="st0" d="M356.9,99.7l-0.3-1.8c-0.2-1.7,0.3-3.4,1.4-4.8c0.9-1.1,1.8-2.3,2.5-3.6c1.2-2,2.1-4,2.7-6.2
		c0.6-2.1,0.7-4.3,0.4-6.4c-0.2-1.5-0.7-2.6-1.3-3.2c-0.7-0.6-1.5-0.8-2.6-0.7c-1,0.1-1.7,0.5-2.2,1.2c-0.5,0.7-0.6,1.5-0.5,2.5
		c0.1,0.7,0.2,1.2,0.5,1.7l0,0c0.4,0.9,0,1.9-0.9,2.2l-4.5,1.7c-1.5,0.6-3.2-0.2-3.8-1.7l0,0c-0.3-0.9-0.6-1.9-0.7-2.9
		c-0.5-3.6,0.2-6.6,2.1-9c1.9-2.4,4.9-3.8,9-4.4c4.2-0.6,7.5,0,10.1,1.9c2.6,1.9,4.1,4.8,4.7,8.8c0.4,2.5,0.3,4.9-0.2,7.2
		c-0.5,2.3-1.4,4.6-2.7,6.8c-1,1.6-2.1,3.2-3.5,4.8c-0.9,1.1-1.4,2.5-1.2,3.9h0c0.3,2.1-1.1,4-3.2,4.3l-2,0.3
		C358.9,102.9,357.2,101.6,356.9,99.7z M358.4,112.4l-0.3-2.1c-0.3-2,1.1-3.8,3.1-4.1l3.2-0.5c1.7-0.2,3.3,0.9,3.5,2.6l0.4,3
		c0.3,1.9-1.1,3.7-3,4l-2.4,0.3C360.7,116,358.7,114.5,358.4,112.4z"/>
</g>
</svg>
