<?xml version="1.0" encoding="utf-8"?>
<!-- Generator: Adobe Illustrator 21.1.0, SVG Export Plug-In . SVG Version: 6.00 Build 0)  -->
<svg version="1.1" id="Calque_1" xmlns="http://www.w3.org/2000/svg" xmlns:xlink="http://www.w3.org/1999/xlink" x="0px" y="0px"
	 viewBox="0 0 381 541.6" style="enable-background:new 0 0 381 541.6;" xml:space="preserve">
<style type="text/css">
	.st0{fill:#FFFFFF;}
	.st1{fill:#333333;}
	.st2{fill:#FFBDE3;}
	.st3{fill:none;stroke:#333333;stroke-width:2;stroke-miterlimit:10;}
	.st4{opacity:0.1;stroke:#FFFFFF;stroke-miterlimit:10;}
</style>
<path class="st0" d="M124.3,21.2l-11.5,6.4c-55.7,30.9-89.3,90.3-87,153.9l0.7,19.6c2.4,66.3-1.5,132.7-11.5,198.3L0.4,495.6
	c-4.2,27.4,27.9,45.3,49,27.3l0.5-0.5c10.2-8.7,24.9-9.5,36-2.1l24.2,16.2c10.2,6.8,23.6,6.7,33.7-0.3l24.4-17
	c10.6-7.4,24.8-7.1,35.1,0.7l18.2,13.7c10.4,7.9,24.7,8.1,35.4,0.5l14.7-10.4c12.7-9,30.2-6.8,40.2,5.1l0,0
	c17.1,20.3,50.3,9.9,52.7-16.6l11.9-129c5.1-54.9,5.8-110.1,2.3-165.1l-3.8-59.9c-3.7-57.6-36.5-109.3-87-137.2l0,0
	C237.1-7.1,175.2-7,124.3,21.2z"/>
<ellipse class="st1" cx="283.9" cy="179.3" rx="18.6" ry="31.4"/>
<ellipse class="st1" cx="150.7" cy="179.3" rx="18.6" ry="31.4"/>
<ellipse class="st2" cx="110.7" cy="243.5" rx="27.5" ry="21.8"/>
<ellipse class="st2" cx="323.2" cy="243.5" rx="27.5" ry="21.8"/>
<path class="st3" d="M336.7,300.6l-17-6.3c-14.7-5.5-28.5-12.9-41.1-22.2l-13-9.6c-4.4-3.2-9.9-4.7-15.3-4l-1.8,0.2
	c-10.7,1.3-18.7,10.4-18.7,21.2v0c0,5,1.7,9.8,4.9,13.6l3.1,3.7c14.3,17.3,32,31.5,51.9,41.9"/>
<path class="st3" d="M113.7,300.6l17-6.3c14.7-5.5,28.5-12.9,41.1-22.2l13-9.6c4.4-3.2,9.9-4.7,15.3-4l1.8,0.2
	c10.7,1.3,18.7,10.4,18.7,21.2v0c0,5-1.7,9.8-4.9,13.6l-3.1,3.7c-14.3,17.3-32,31.5-51.9,41.9"/>
<path class="st4" d="M311.9,534.8"/>
</svg>
